<svg width="142" height="49" fill="none" xmlns="http://www.w3.org/2000/svg"><path d="M0 28.022v13.322l11.637-6.661V21.36L0 28.02Z" fill="#1499C4"/><path d="M0 13.705v13.322l11.637-6.661V7.044L0 13.704Z" fill="#75C9EB"/><path d="M12.402 20.978v13.399l11.638-6.661V14.317l-11.638 6.661Z" fill="#37ADD5"/><path d="M12.402 6.66v13.323l11.638-6.661V0L12.402 6.66Z" fill="#7FCEED"/><path d="m0 42.416 14.01-8.04v13.399L11.638 49 0 42.416Z" fill="#007EB1"/><path d="M43.545 15.094a1.914 1.914 0 0 0-.251-.55 1.7 1.7 0 0 0-.925-.669 2.232 2.232 0 0 0-.652-.09c-.446 0-.838.111-1.176.333-.335.221-.596.544-.784.967-.187.42-.281.935-.281 1.543 0 .608.092 1.125.277 1.551.184.426.446.751.784.976.338.221.737.332 1.197.332.418 0 .774-.074 1.07-.221.298-.15.526-.363.682-.635.159-.273.238-.596.238-.968l.375.056h-2.25v-1.39h3.652v1.1c0 .767-.161 1.426-.485 1.977a3.31 3.31 0 0 1-1.338 1.27c-.569.296-1.22.443-1.952.443-.818 0-1.537-.18-2.156-.54a3.756 3.756 0 0 1-1.45-1.548c-.343-.67-.515-1.466-.515-2.386 0-.707.102-1.338.307-1.892a4.043 4.043 0 0 1 .87-1.415c.371-.386.805-.68 1.299-.882a4.211 4.211 0 0 1 1.606-.303c.495 0 .955.073 1.381.218.426.142.804.343 1.134.605.332.261.603.572.814.933.21.358.345.753.404 1.185h-1.875ZM46.887 21v-8.727h1.846v7.206h3.741V21h-5.587Zm14.49-4.364c0 .952-.181 1.762-.542 2.43a3.753 3.753 0 0 1-1.466 1.53c-.617.349-1.31.523-2.08.523-.775 0-1.471-.176-2.088-.528-.616-.352-1.103-.862-1.461-1.53-.358-.668-.537-1.476-.537-2.425 0-.951.179-1.761.537-2.429.358-.667.845-1.176 1.461-1.525.617-.353 1.313-.529 2.088-.529.77 0 1.463.176 2.08.529.62.35 1.108.858 1.466 1.525.36.668.541 1.478.541 2.43Zm-1.872 0c0-.616-.092-1.136-.277-1.56-.181-.423-.439-.744-.771-.962a2.076 2.076 0 0 0-1.168-.329c-.446 0-.835.11-1.167.329-.333.218-.591.54-.776.963-.182.423-.272.943-.272 1.56 0 .616.09 1.136.272 1.559.185.423.443.744.776.963.332.219.721.328 1.167.328.446 0 .836-.11 1.168-.328.332-.219.59-.54.771-.963.185-.423.277-.943.277-1.56ZM62.743 21v-8.727h3.494c.642 0 1.178.095 1.607.285.429.19.751.455.967.793.216.335.324.721.324 1.159 0 .34-.068.64-.205.9a1.766 1.766 0 0 1-.562.63 2.305 2.305 0 0 1-.81.345v.085a1.991 1.991 0 0 1 1.645 1.01c.182.31.273.68.273 1.108 0 .463-.115.877-.345 1.24-.228.36-.564.646-1.01.857-.446.21-.996.315-1.65.315h-3.728Zm1.845-1.509h1.504c.514 0 .89-.098 1.125-.294a.985.985 0 0 0 .354-.792c0-.242-.058-.455-.175-.64a1.187 1.187 0 0 0-.498-.434 1.708 1.708 0 0 0-.763-.158h-1.547v2.319Zm0-3.566h1.368c.253 0 .477-.044.673-.132a1.12 1.12 0 0 0 .469-.384 1 1 0 0 0 .175-.592.957.957 0 0 0-.337-.763c-.222-.193-.537-.29-.946-.29h-1.402v2.16ZM72.181 21h-1.977l3.012-8.727h2.378L78.603 21h-1.978l-2.186-6.733h-.068L72.181 21Zm-.124-3.43h4.67v1.44h-4.67v-1.44ZM79.653 21v-8.727h1.845v7.206h3.742V21h-5.587Zm-39.93 14-2.497-8.727h2.016l1.444 6.064h.072l1.594-6.064h1.726l1.59 6.076h.076l1.445-6.076h2.016L46.707 35H44.91l-1.662-5.706h-.068L41.521 35h-1.798Zm12.314-8.727V35h-1.845v-8.727h1.845Zm8.818 0V35h-1.594l-3.797-5.493h-.063V35h-1.846v-8.727h1.62l3.767 5.488h.077v-5.488h1.836ZM65.473 35H62.38v-8.727h3.119c.878 0 1.633.174 2.267.524.633.346 1.12.845 1.462 1.496.343.65.515 1.429.515 2.335 0 .909-.172 1.69-.515 2.344a3.544 3.544 0 0 1-1.47 1.504c-.637.35-1.398.524-2.285.524Zm-1.248-1.581h1.172c.545 0 1.004-.097 1.376-.29.375-.196.656-.498.844-.907.19-.412.285-.944.285-1.594 0-.645-.095-1.172-.285-1.581a1.848 1.848 0 0 0-.84-.904c-.372-.193-.83-.29-1.376-.29h-1.176v5.566Zm14.905-2.783c0 .952-.18 1.762-.541 2.43a3.753 3.753 0 0 1-1.466 1.53c-.617.349-1.31.523-2.08.523-.775 0-1.471-.176-2.088-.528-.616-.352-1.103-.862-1.461-1.53-.358-.667-.537-1.476-.537-2.425 0-.951.179-1.761.537-2.429.358-.667.845-1.176 1.461-1.525.617-.352 1.313-.529 2.088-.529.77 0 1.463.177 2.08.529.62.35 1.108.858 1.466 1.525.36.668.541 1.478.541 2.43Zm-1.87 0c0-.616-.093-1.136-.278-1.56-.182-.423-.439-.744-.771-.962a2.075 2.075 0 0 0-1.168-.329c-.446 0-.835.11-1.167.329-.333.218-.591.54-.776.963-.182.423-.273.943-.273 1.56 0 .616.091 1.136.273 1.559.185.423.443.744.776.963.332.219.721.328 1.167.328.446 0 .836-.11 1.168-.328.332-.219.59-.54.771-.963.185-.423.277-.943.277-1.56ZM82.132 35l-2.497-8.727h2.016l1.444 6.064h.073l1.593-6.064h1.726l1.59 6.076h.076l1.445-6.076h2.016L89.118 35h-1.799l-1.662-5.706h-.068L83.932 35h-1.799Zm20.546-8.727V35h-1.593l-3.797-5.493h-.064V35H95.38v-8.727h1.619l3.767 5.488h.077v-5.488h1.836Zm1.013 0h2.067l1.99 3.758h.086l1.99-3.758h2.066l-3.183 5.642V35h-1.832v-3.085l-3.184-5.642Zm10.326 7.534-.047.469a6.455 6.455 0 0 1-.213 1.12c-.102.375-.21.715-.324 1.019-.111.304-.2.542-.269.716h-1.176c.043-.168.101-.402.175-.703.074-.299.144-.634.209-1.006s.106-.752.123-1.138l.022-.477h1.5Zm5.906-7.534V35h-1.845v-8.727h1.845Zm8.818 0V35h-1.594l-3.797-5.493h-.064V35h-1.845v-8.727h1.619l3.767 5.488h.077v-5.488h1.837Zm9.225 3.055H136.1a1.825 1.825 0 0 0-.209-.643 1.643 1.643 0 0 0-.404-.486 1.788 1.788 0 0 0-.572-.307 2.18 2.18 0 0 0-.694-.107c-.452 0-.845.113-1.181.337-.335.222-.595.546-.779.972-.185.423-.277.937-.277 1.542 0 .623.092 1.145.277 1.569.187.423.449.742.784.958a2.1 2.1 0 0 0 1.163.324c.247 0 .476-.032.686-.098a1.642 1.642 0 0 0 .976-.75c.111-.182.188-.389.23-.622l1.867.009a3.475 3.475 0 0 1-1.134 2.152 3.63 3.63 0 0 1-1.15.69 4.235 4.235 0 0 1-1.505.251c-.778 0-1.474-.176-2.088-.528-.611-.352-1.094-.862-1.449-1.53-.352-.667-.528-1.476-.528-2.425 0-.951.179-1.761.537-2.429.358-.667.844-1.176 1.457-1.525.614-.352 1.304-.529 2.071-.529.506 0 .975.071 1.407.213.434.143.819.35 1.154.623.336.27.608.6.819.992.213.393.349.841.409 1.347Z" fill="#393939"/></svg>